<?xml version="1.0" encoding="utf-8"?>
<!-- Generator: Adobe Illustrator 23.0.1, SVG Export Plug-In . SVG Version: 6.00 Build 0)  -->
<svg version="1.1" id="Livello_1" xmlns="http://www.w3.org/2000/svg" xmlns:xlink="http://www.w3.org/1999/xlink" x="0px" y="0px"
	 viewBox="0 0 2576.8 489.5" style="enable-background:new 0 0 2576.8 489.5;" xml:space="preserve">
<style type="text/css">
	.st0{fill:#000000;}
</style>
<title>svg</title>
<path class="st0" d="M604.7,324.3c-20.7,0-37.5-5.2-50.5-15.5c-12.9-10.4-20.2-24.8-21.8-43.4h26.3c1.4,11.3,5.9,20.3,13.4,27
	c7.5,6.6,18.2,10,32,10c14.3,0,25-2.7,32-8.2c7-5.5,10.5-13.1,10.5-22.8c0.1-3.8-1-7.6-2.9-10.9c-1.6-2.8-3.7-5.3-6.2-7.4
	c-2.2-1.8-6-3.5-11.3-5.3c-5.3-1.8-9.3-3-12.1-3.6c-2.8-0.6-7.7-1.6-14.7-3c-7.6-1.4-13.6-2.7-18.1-3.9c-5.5-1.5-10.9-3.5-16.1-5.8
	c-6.3-2.7-11.2-5.8-14.7-9.3c-3.9-4-7-8.8-9.2-13.9c-2.7-6.4-4-13.3-3.8-20.2c0-15.4,5.7-27.8,17.1-37.2
	c11.4-9.4,26.7-14.1,45.8-14.1c20.2,0,36.2,5,47.9,14.9c11.8,9.9,18.3,23.5,19.5,40.6h-26c-0.6-9.1-4.6-17.7-11.3-23.9
	c-6.8-6.6-16.7-9.8-29.6-9.8c-11.7,0-20.9,2.5-27.6,7.4c-6.7,5-10.1,11.9-10.1,20.7c0,9.4,3.6,16.1,10.8,20.2
	c7.2,4.1,17.9,7.4,32.3,10.1c20,3.9,33.7,7.6,41.2,11.2c16.8,8.1,25.2,22.1,25.2,41.7c0,16.6-6.1,29.9-18.3,39.9
	C642.2,319.3,625.6,324.3,604.7,324.3z"/>
<path class="st0" d="M784.6,321.1l-61.1-134.4v134.4h-24.7v-182H728l64.6,144l64.3-144H886v182h-25.2V186.7l-61.1,134.4H784.6z"/>
<path class="st0" d="M1045.9,321.1l-15.4-40.6h-83.4L932,321.1h-27.4l70.4-182h28.4l70.4,182H1045.9z M1021.8,256.8l-32.9-87.1
	l-32.7,87.1H1021.8z"/>
<path class="st0" d="M1118.2,253.1v68h-25.8v-182h63.8c19.7,0,34.9,5.3,45.8,15.9c10.9,10.6,16.3,24.2,16.3,40.6
	c0,16.8-5.4,30.6-16.3,41.3c-10.9,10.7-26.2,16.1-45.8,16.1h-4.2l73.6,68h-36.1L1118.2,253.1z M1154.1,162.8h-35.9v68h33.7
	c14,0,24.3-3.4,30.8-10.1c6.5-6.6,10-15.5,9.8-24.7c0-9.6-3.2-17.5-9.7-23.8C1176.4,165.9,1166.8,162.8,1154.1,162.8L1154.1,162.8z"
	/>
<path class="st0" d="M1311.1,321.1h-25.8V162.8h-57.4v-23.6h140.5v23.6h-57.4L1311.1,321.1L1311.1,321.1z"/>
<path class="st0" d="M1452.4,324.5c-22.7,0-40.3-5.3-52.9-15.9c-12.6-10.6-19.5-25.4-20.7-44.4h41.2c0.3,7.4,3.4,14.5,8.6,19.8
	c5.2,5.2,13.5,7.8,24.8,7.8c10.1,0,17.8-1.8,23.2-5.5c5.4-3.6,8.1-8.4,8.1-14.2c0-2.6-0.8-5.2-2.3-7.3c-1.4-2.1-3.1-3.9-5.1-5.3
	c-2.8-1.8-5.8-3.1-9-4c-4.2-1.3-7.5-2.3-10-2.9c-2.5-0.6-6.6-1.5-12.2-2.8c-5.5-1.4-9.7-2.5-12.8-3.2c-3-0.7-7.2-2-12.5-3.9
	c-4.3-1.4-8.5-3.2-12.5-5.5c-3.6-2.2-7-4.6-10.2-7.2c-3.5-2.7-6.5-6-8.8-9.7c-2.3-4-4.1-8.3-5.3-12.8c-1.6-5.4-2.3-11-2.3-16.6
	c0-16.3,6.1-29.6,18.2-40c12.1-10.4,28.8-15.5,50.1-15.5c21.6,0,38.6,5.4,50.9,16.2c12.3,10.8,19.2,25.3,20.6,43.6h-41.4
	c-0.9-17.5-11.2-26.3-31.1-26.3c-8.3,0-15,1.6-19.9,4.9c-4.8,2.9-7.6,8.1-7.4,13.7c0,2.9,0.7,5.7,2.3,8.1c1.3,2.2,3.1,4.2,5.2,5.7
	c2.8,1.8,5.8,3.3,8.9,4.4c3.3,1.3,6.8,2.4,10.2,3.3c2.8,0.7,6.9,1.7,12.2,2.9c6,1.4,10.4,2.4,13.1,3.1c2.7,0.6,6.9,1.8,12.6,3.6
	c4.4,1.3,8.7,2.9,12.8,5.1c3.5,2,6.9,4.3,10.2,6.6c3.6,2.4,6.7,5.5,9,9.2c2.2,3.8,4,7.8,5.3,12c1.6,5,2.3,10.3,2.3,15.5
	c0,17-6.5,30.8-19.4,41.4C1493.6,319.2,1475.6,324.5,1452.4,324.5z"/>
<path class="st0" d="M1664.6,321.1v-71.2h-77v71.2h-41.2v-182h41.2v73.1h77v-73.1h41.2v182L1664.6,321.1z"/>
<path class="st0" d="M1824.2,324.8c-26.7,0-49.5-9.1-68.3-27.2c-18.8-18.2-28.2-40.6-28.2-67.3c0-26.9,9.4-49.5,28.2-67.6
	c18.8-18.2,41.5-27.2,68.3-27.2c27.3,0,50.2,9,68.7,27.1c18.5,18.1,27.8,40.6,27.8,67.5c0,27.1-9.3,49.7-27.8,67.7
	C1874.4,315.8,1851.5,324.8,1824.2,324.8z M1785.5,270.4c10.4,10.8,23.4,16.2,38.8,16.2c15.4,0,28.3-5.4,38.8-16.2
	c10.4-10.8,15.7-24.3,15.7-40.4c0-15.8-5.2-29.1-15.7-40c-10.4-10.9-23.4-16.3-38.8-16.3c-15.4,0-28.3,5.4-38.8,16.3
	c-10.4,10.9-15.7,24.3-15.7,40.2C1769.8,246.2,1775,259.5,1785.5,270.4z"/>
<path class="st0" d="M2017.4,270.4h-33.5v50.7h-41.2v-182h78.4c20,0,35.8,6.1,47.4,18.3c11.6,12.2,17.4,27.5,17.4,45.9
	c0,19.1-6.2,35.1-18.6,47.8C2054.9,264,2038.3,270.3,2017.4,270.4z M2015,176.8h-31.1v55.8h32.4c8.7,0,15.5-2.6,20.6-7.8
	c5.1-5.2,7.6-12,7.6-20.3c0-8.5-2.6-15.2-7.7-20.2C2031.6,179.3,2024.4,176.9,2015,176.8L2015,176.8z"/>
<path class="st0" d="M2182.3,270.4h-33.5v50.7h-41.2v-182h78.4c20,0,35.8,6.1,47.4,18.3c11.6,12.2,17.4,27.5,17.4,45.9
	c0,19.1-6.2,35.1-18.6,47.8C2219.9,264,2203.2,270.3,2182.3,270.4z M2179.9,176.8h-31.1v55.8h32.4c8.7,0,15.5-2.6,20.6-7.8
	c5.1-5.2,7.6-12,7.6-20.3c0-8.5-2.6-15.2-7.7-20.2C2196.6,179.3,2189.3,176.9,2179.9,176.8L2179.9,176.8z"/>
<path class="st0" d="M2272.6,321.1v-182h133.1v37.2h-91.9v34.3h85v36.1h-85v37.2h92.2v37.2L2272.6,321.1L2272.6,321.1z"/>
<path class="st0" d="M2469.5,259.2v61.9h-41.2v-182h77.6c19.1,0,34.4,5.6,45.7,16.7c11.3,11.2,17,25.8,17,43.8
	c0.2,13.7-4.5,27.1-13.4,37.6c-8.9,10.7-21,17.6-36.3,20.6l57.9,63.2h-53.7L2469.5,259.2z M2499.8,176.8h-30.3v48.6h28.9
	c8.9,0,15.8-2.3,21-6.8c5.1-4.3,7.9-10.7,7.7-17.4c0-7.3-2.3-13.1-7-17.7C2515.4,179.1,2508.6,176.8,2499.8,176.8L2499.8,176.8z"/>
<path class="st0" d="M476.1,164.6l-0.5-1.4H213.9l-7,15.7h-35l21.1-47.7h268.6l-1.6-3c-6.2-11.4-13.2-22.2-21.1-32.5H163.8l-44,99.3
	h230.3l-14.4,33.2l0,0.4l-7.9,17.7h-35l8.6-19.4H70.1L143,63.8h266.6c-100-91-254.9-83.7-345.9,16.4C3.5,146.4-15.8,240.3,13.4,325
	l0.5,1.4h243.6l7-15.7h35l-21.1,47.7H27.8l1.6,3c6.2,11.4,13.2,22.2,21.1,32.5h257.1l44-99.3H120.7l13-29.3c1-1.2,1.7-2.7,1.9-4.2
	l7.9-17.8h34.9l-8.6,19.4h231.6l-11.7,26.1l-61.4,137.1H79.9c100.1,90.9,255,83.5,345.9-16.6C486,342.9,505.3,249.2,476.1,164.6z"/>
</svg>
