<?xml version="1.0" standalone="no"?>
<!DOCTYPE svg PUBLIC "-//W3C//DTD SVG 20010904//EN"
 "http://www.w3.org/TR/2001/REC-SVG-20010904/DTD/svg10.dtd">
<svg version="1.0" xmlns="http://www.w3.org/2000/svg"
 width="491.000000pt" height="491.000000pt" viewBox="0 0 491.000000 491.000000"
 preserveAspectRatio="xMidYMid meet">
<metadata>
Created by potrace 1.14, written by Peter Selinger 2001-2017
</metadata>
<g transform="translate(0.000000,491.000000) scale(0.100000,-0.100000)"
fill="#000000" stroke="none">
<path d="M2337 4904 c-1 -1 -40 -5 -87 -8 -103 -8 -230 -28 -376 -60 -190 -41
-514 -177 -703 -295 -85 -53 -247 -170 -311 -226 -212 -184 -408 -428 -550
-682 -94 -170 -209 -470 -236 -618 -3 -16 -7 -32 -9 -35 -6 -9 -33 -176 -43
-260 -9 -85 -9 -445 1 -535 12 -117 56 -324 90 -435 l33 -105 1219 -3 1220 -2
36 79 37 79 170 0 171 0 -19 -47 c-17 -42 -80 -186 -132 -301 -12 -25 -29 -64
-39 -87 l-18 -41 -1246 0 c-686 0 -1249 -2 -1252 -5 -10 -11 192 -326 220
-344 19 -12 2558 -10 2572 2 7 5 33 57 58 115 25 58 61 139 80 180 19 41 62
138 95 215 34 77 94 214 135 305 41 91 73 166 72 168 -2 2 -521 3 -1153 3
l-1151 0 33 77 c18 42 58 131 88 197 30 66 65 146 78 178 18 42 29 57 44 58
63 3 318 1 321 -3 2 -2 -14 -43 -36 -92 -22 -49 -37 -91 -35 -93 2 -3 523 -5
1156 -4 885 0 1151 -3 1147 -12 -3 -7 -82 -185 -177 -397 -95 -212 -184 -410
-197 -440 -23 -53 -32 -73 -83 -185 -25 -55 -228 -511 -251 -562 l-14 -33
-1245 0 -1245 -1 45 -40 c186 -166 464 -333 716 -432 83 -33 265 -91 318 -101
108 -22 136 -28 171 -32 22 -3 46 -7 53 -10 76 -24 660 -24 702 1 3 1 28 6 55
9 71 10 204 41 320 77 561 172 1047 551 1359 1057 54 88 176 325 176 342 0 4
8 25 17 46 9 22 17 41 18 44 0 3 13 41 27 85 82 244 121 489 122 750 0 122
-11 321 -18 334 -2 3 -6 29 -10 58 -3 29 -11 75 -17 103 -6 29 -12 57 -13 63
-7 32 -21 81 -48 172 l-30 100 -1309 0 -1310 0 -31 -70 c-17 -39 -34 -74 -38
-79 -9 -9 -327 -13 -336 -3 -5 5 23 73 158 376 11 25 25 56 31 68 l10 23 1344
2 1343 3 -65 110 c-36 61 -88 140 -115 178 l-50 67 -1377 0 -1378 -1 -99 -227
c-55 -125 -117 -265 -138 -310 -21 -46 -38 -86 -38 -89 0 -2 -12 -30 -26 -61
-48 -105 -134 -300 -134 -305 0 -2 515 -4 1145 -3 825 1 1145 -2 1145 -10 0
-10 -59 -150 -172 -411 l-40 -92 -169 1 c-99 0 -169 5 -169 10 0 5 16 46 35
89 19 44 35 83 35 87 0 4 -517 7 -1150 7 -1212 0 -1165 -2 -1140 43 13 22 56
117 180 397 56 127 111 250 122 275 30 65 216 484 310 695 44 99 85 189 92
200 13 20 23 20 1346 20 l1332 0 -43 39 c-110 98 -346 258 -484 328 -105 54
-140 70 -225 103 -52 20 -99 38 -105 39 -5 2 -35 10 -65 20 -72 23 -141 41
-215 57 -86 18 -85 18 -135 24 -25 4 -54 8 -66 10 -89 14 -426 29 -437 19z"/>
</g>
</svg>
